<svg role="img" viewBox="0 0 24 24" xmlns="http://www.w3.org/2000/svg" id="Wireshark--Streamline-Simple-Icons" height="24" width="24">
  <desc>
    Wireshark Streamline Icon: https://streamlinehq.com
  </desc>
  <title>Wireshark</title>
  <path d="M2.95 0C1.33 0 0 1.32 0 2.95v18.1C0 22.68 1.32 24 2.95 24h18.1c1.62 0 2.95 -1.32 2.95 -2.95V2.95C23.99976 1.32 22.68 0 21.05 0zm0 1.09h18.1c1.04 0 1.85 0.818 1.85 1.86v14h-5.27c-0.335 -0.796 -2.57 -6.47 0.283 -10.9a0.516 0.517 0 0 0 -0.443 -0.794c-5.24 0.0827 -8.2 3.19 -9.74 6.21 -1.35 2.64 -1.63 4.91 -1.69 5.53H1.09v-14c0 -1.04 0.817 -1.86 1.85 -1.86zm13.6 5.24c-2.62 5.24 0.248 11.4 0.248 11.4a0.516 0.517 0 0 0 0.469 0.301h5.62v3.05c0 1.04 -0.817 1.86 -1.85 1.86h-18.1c-1.04 0 -1.85 -0.818 -1.85 -1.86v-3.05h5.39a0.516 0.517 0 0 0 0.514 -0.477s0.226 -2.8 1.66 -5.62c1.34 -2.62 3.67 -5.17 7.91 -5.57z" fill="#000000" stroke-width="1"></path>
</svg>